@startuml The_Cycle

title The_Cycle - Class Diagram

' ===========================
' Launcher & Menu
' ===========================

class App {
    + main(): void
}
App --> GameLauncher : calls getInstance()

class GameLauncher {
    - static instance : GameLauncher
    - GameLauncher()
    + static getInstance(): GameLauncher
    + launch(): void
}

class MainMenuView {
    + show(): void
}

GameLauncher --> MainMenuView : launch()
MainMenuView-->MainMenuController

'Pattern Memento'
class GameState {
    - party : Party
    - inventory : Inventory
    - map : Map
    - enemies : List<Enemy>
    - npc : List<NPC>
    - storyFlags : Map<Event, Boolean>
    - worldPosition : WorldPosition

    +createParty(): void
    +createEnemy(): void
    +createNPC(): void
    + saveToMemento() : GameStateMemento
}

class GameStateMemento{
    -nPlayers: int
    -autoSaveEnable: boolean
    -party: Party
    -worldPosition: WorldPosition
    -flagMap: FlagMap
    -currentStoryNode: StoryNode
    -enemies: List<Enemy>
    -npc: List<NPC>
    -maps: List<String>
    -mapId: int

    +toString: String
}

'CareTaker'
class SaveManager{
    +saveGame(slot: int,state: GameState)
    +continueGame(slot: int): GameState
    +isSlotUsed(slot: int): boolean
    +confirmOwerwrite(slot: int): boolean
}

GameState-->GameStateMemento: creates
SaveManager-->GameStateMemento: stores
SaveManager-->GameState: triggers restore

GameState o-- Party
GameState o-- Inventory
GameState o-- Map
GameState o-- Enemy
GameState o-- NPC

class MainMenuController {
    + onNewGame(event: ActionEvent): void
    + onResumeGame(event: ActionEvent): void
    + onExit(event: ActionEvent): void
}
abstract class GameView{
    + show(): void
}
class NewGameView extends GameView{
    + show(): void
    + getSelectedPlayers(group: ToggleGroup): int
}

class ContinueGameView extends GameView{
    + show(): void
    + createSlotRow(slot: int): HBox
    + createAutosaveSlotRow(): HBox
}

NewGame --> NewGameView
ContinueGame-->ContinueGameView
MainMenuController --> GameView : render()

' ===========================
' GameController Creation (Factory)
' ===========================

enum GameMode {
    - NEW_GAME
    - CONTINUE_GAME
}

class GameControllerFactory {
    -createGame(GameMode gameMode): GameController
}

abstract class GameController{
    - saveManager: SaveManager

    +start(): void
    +startExploration(): void
    +handleStoryChoice(choice: String): void
    +saveGame(slot: int): void
    +loadGame(slot: int): void
    +loadFromAutosave(): void
}

class NewGameController extends GameController{
    - saveManager: SaveManager

    
    +start(): void
    +onNewGameConfirmed(players: int, autosave: boolean): void
    +onCharacterSelected(job: Job): void
    +startExploration(): void
    +handleStoryChoice(choice: String): void
    +saveGame(slot: int): void
    +loadGame(slot: int): void
    +loadFromAutosave(): void
}

class ContinueGameController extends GameController{
    - saveManager: SaveManager

    +start(): void
    +startExploration(): void
    +handleStoryChoice(choice: String): void
    +saveGame(slot: int): void
    +loadGame(slot: int): void
    +loadFromAutosave(): void
}

' ===========================
' Character Creation (Abstract Factory)
' ===========================

abstract class CharacterPG {
    - currentMove: List<Move>
    - job: Job
    - baseStats: Stats
    - currentStats: Stats
    - position: Position
    - inCombat: boolean

    + refreshCurrentStats(): void
    + enterCombat(): void
    + exitCombat(): void
    + isInCombat(): boolean
    + createCharacterSprite(): ImageView
    + getCurrentMove(): List<Move>
    + takeDamage(int value): void
    + heal(int value): void
}

class Player extends CharacterPG {
    - xp: int
    - follower: Player
    - imgSprite: Image

    + notifyFollower(): void
    + learnMove(move: Move): void
    + subscribeToFollowed(): void
    + unsubscribeFromFollowed(): void
    + addXp(): void
    + takeDamage(int value): void
    + heal(int value): void
    + hasAbility(): boolean
}

class Enemy extends CharacterPG {
    - imgSprite: Image
    + takeDamage(int value): void
    + heal(int value): void
}

interface Interactable {
    + interact(party: Party): void
}

abstract class NPC implements Interactable {
    - sprite: ImageView
    - job: Job
    - pos: Position
    - dialogue: Dialogue
    - shopMoves: List<Move>

    + getJob(): Job
    + addShopMove(move: Move): void
    + interact(player: Player): void
}

class MovesNPC extends NPC {
    + interact(player: Player): void
}

enum Job{
    - col: int
    - row: int
    - baseStats: Stats
    - isPlayable: boolean
    - effectiveMoves: List<Move>

    +getX(): int
    +getY(): int
    +getIsPlayable: boolean
    +getBaseStats(): Stats
    + initAllMoves(): void
    + getShopMoves(): List<Move>
    + getEffectiveMoves(): List<Move>
}

class CharacterSelectionView{
    - gameController: GameController
    - selectedCard: VBox
    - startGameBtn: Button

    + show(): void
    + createCard(job: Job): VBox
    +selectCharacter(): void
}

class Party{
    -members: List<Player>

    +updateFollowPosition(newLeaderPos: Position): void
}
CharacterSelectionView --> GameController : user selects job
NewGameView --> CharacterSelectionView : selectJobs()
GameController --> Player : createParty()
GameController --> Enemy : createEnemy()
GameControllerFactory ..> GameMode
GameControllerFactory --> GameController
Player --> Job
Enemy --> Job

' ===========================
' Strategy Pattern (Move)
' Adapter Pattern (Move)
' Singleton Pattern (MoveRegistry)
' ===========================

class Move {
    - id: String
    - name: String
    - type: MoveType
    - value: int
    - cost: int
    - req: List<String>
    - description: String
    + getId(): String
    + getName(): String
    + getType(): MoveType
    + getValue(): int
    + getCost(): int
    + getReq(): List<String>
    + getDescription(): String
}

interface ActionStrategy {
    + execute(user: Character, target: Character)
}

enum MoveType {
    +createMove(move: Move): ActionStrategy
}

abstract class MoveAction implements ActionStrategy{
    - move: Move
    - combatStrategy: CombatCalculationStrategy
    + execute(user,target)
}

abstract class OffensiveMove extends MoveAction {
    - move: Move
    + execute(user,target)
    + calculateDamage(user,target)
}

class AttackMove extends OffensiveMove {
    - move: Move
    + execute(user,target)
    + calculateDamage(user,target)
}

class HealMove extends MoveAction {
    - move: Move
    + execute(user,target)
}

class MagicAttackMove extends OffensiveMove {
    - move: Move
    + execute(user,target)
    + calculateDamage(user,target)
}

class ItemAction implements ActionStrategy{
    - item: Item
    + execute(user, target)
}

class MoveReader {
    + readMove(String path): List<Move>
}

class MoveRegistry {
    - MoveRegistry instance
    - Map<String, Move> moves
    + getInstance(): MoveRegistry
    + getMoveActionStrategy(String move): ActionStrategy
}

Player ..> ActionStrategy : uses
Player..>Move: stores
Enemy..>ActionStrategy : uses
MoveType..>MoveAction: creates

MoveRegistry ..> MoveReader : uses
MoveRegistry ..> ActionStrategy : creates

' ===========================
' Shop
' ===========================

class ShopView {
    - player: Player
    + addShopItem(move: Move): void
    + showFeedback(moveName: String): void
    + updateUI(): void
    + open(npc: NPC): void
    + closed(): void

}

ShopView --> Player: interacts
ShopView --> NPC: showShop

'Indica dipendenza perchè shopview ha bisogno di Move per creare UI'
ShopView ..> Move : add() 

' ===========================
' Builder Pattern (Map)
' ===========================

class MapBuilder {
    - map: MapView
    + addLayer(layer)
    + build()
}

class ExplorationView {
    + showMap(): void
    + start(): void
    + stop(): void
    + destroy(): void
}

class ExplorationController {
    + updatePositionLimit(): void
    + update(): void
    + handlePossibleInteractions(): void
    + handleBattle(e: Enemy): void
    + movePlayer(key: KeyCode): void
    + canGoThere(nextPosition: Position): void
}

ExplorationView --> ExplorationController
ExplorationView --> MapBuilder
CharacterSelectionView --> ExplorationView : startExploration()

class Battle {
    - List<Enemy> enemies
    - List<Player> party
    - int turnIndex
    - RewardStrategy rewardStrategy
    - observer : BattleView
    + calculateDamage(attacker, defender)
    + nextTurn()
    + isBattleOver() : bool
    + endBattle()
    + assignRewards()
    + notifyObservers()
}

class BattleView {
    + showBattleState()
    + showTurn()
    + subscribe(battleController : BattleController)
    + unsubscribe(battleController : BattleController)
}

class BattleController {
    - TurnIterator turnIterator
    + startBattle(enemies)
    + playerTurn(action)
    + enemyTurn()
}

enum BattleResult{
    + ONGOING
    + PARTY_WON
    + PARTY_DEFEATED
}

interface TurnStrategy {
    + sortAction() : void
    + getTurnIterator() : TurnIterator
}
class StaticSpeedTurn implements TurnStrategy {
    - List<Character> characterList
    + sortAction() : void
    + getTurnIterator() : TurnIterator
}

interface TurnIterator {
    + hasCharacters()
    + nextCharacter()
}

class ConcreteTurnIterator implements TurnIterator {
    + hasCharacters()
    + nextCharacter()
}

interface RewardStrategy {
    ' Reward class will get a List<Item> from db through calculateRewards method '
    + calculateRewards(List<Enemy>): Reward 
}

class StandardRewardStrategy implements RewardStrategy{
    + calculateRewards(List<Enemy>): Reward 
}

class NoRewardStrategy implements RewardStrategy {
    + calculateRewards(List<Enemy>): Reward 
}

class Reward {
    - int xp
    - List<Item> : drop
    + assignXP(int: xp)
    + assignItem(Item : item)
}
BattleController-->BattleView:updateUI()
BattleController-->Battle

Battle-left->BattleResult
Battle-down->RewardStrategy
Battle->TurnStrategy

TurnStrategy..>TurnIterator: creates
RewardStrategy..>Reward: creates

class ViewManager {
    - ViewManager instance
    + getInstance(): ViewManager
    + destroyViews(): void
    + showMainMenu(): void
    + showNewGameView(NewGameController gameController): void
    + showContinueGameView(GameController gameController): void
    + initPauseMenu(Scene scene, GameController gameController): void
    + showSaveMenu(Scene scene, GameController gameController): void
    + enableGlobalPause(Scene scene): void
    + togglePause(): void
    + showCharacterSelectionView(NewGameController gameController): void
    + showExplorationView()
    + showBattleView(Battle battle): void
    + showStory(Scene scene): void
    + showDialogView(Scene scene, Player player, NPC target): void
    + showShop(Player player, NPC npc, Party party): void
    + setAndShowScene(Scene scene): void
    + exit(): void
    + isPaused(): boolean
    + updateMaps(): void
}

ExplorationView ..> ViewManager
BattleView ..> ViewManager
StoryView ..> ViewManager

' ===========================
' Builder Pattern (StoryNode)
' ===========================

class StoryNode {
    - name: String
    - dialogues: List<String>
    - choices: List<Choice>
    - trigger: SerializablePredicate<GameState>
    + addChoice(Choice choice): void
}

class StoryNodeBuilder {
    - name: String
    - dialogues: List<String>
    - choices: List<Choice>
    - trigger: SerializablePredicate<GameState>
    + setName(String name): StoryNodeBuilder
    + addDialogue(String dialogue): StoryNodeBuilder
    + addChoice(Choice choice): StoryNodeBuilder
    + setDialogues(List<String> dialogues): StoryNodeBuilder
    + setChoices(List<Choice> choices): StoryNodeBuilder
    + setTrigger(SerializablePredicate<GameState> trigger): StoryNodeBuilder
    + buildStoryNode(): StoryNode
}

class StoryNodeLoader {
    + load(): StoryNode
}

class Choice {
    - nextNode: StoryNode
    - text: String
    - SerializableConsumer<GameState>
    + getNextNode(): StoryNode
    + getText(): String
}

enum Flag {

}

class FlagMap {
    - flags: EnumMap<Flag, Boolean>
    + getFlag(Flag flag): boolean
    + setFlag(Flag flag): void
}

class StoryView {

}

class StoryController {
    + enter(): void
    + onChoice(String choiceText): void
}

StoryNodeBuilder --> StoryNode
StoryNodeLoader --> StoryNodeBuilder
StoryNode --> Choice

FlagMap *-- Flag

StoryController --> StoryView
StoryController --> StoryNode

@enduml